<svg width="279" height="74" viewBox="0 0 279 74" fill="none" xmlns="http://www.w3.org/2000/svg">
<path d="M102.912 50.048L102.576 56.528L83.088 56.528L83.088 29.408C83.088 28.448 82.992 27.712 82.8 27.2C82.64 26.656 82.304 26.16 81.792 25.712C81.568 25.52 81.264 25.36 80.88 25.232C80.496 25.104 80.128 25.04 79.776 25.04C79.232 25.04 78.96 24.8 78.96 24.32C78.96 23.808 79.216 23.552 79.728 23.552L101.712 23.552L101.952 29.264C101.952 29.52 101.76 29.648 101.376 29.648C101.024 29.648 100.848 29.504 100.848 29.216C100.848 29.216 100.752 28.912 100.56 28.304C100.368 27.696 100.112 27.168 99.792 26.72C99.504 26.368 99.072 26.096 98.496 25.904C97.92 25.68 97.056 25.568 95.904 25.568L89.52 25.568C88.912 25.568 88.432 25.616 88.08 25.712C87.728 25.776 87.36 25.936 86.976 26.192C86.624 26.48 86.384 26.832 86.256 27.248C86.16 27.664 86.112 28.32 86.112 29.216L86.112 38.24L93.888 38.24C94.4 38.24 94.896 38.224 95.376 38.192C95.856 38.16 96.256 38.08 96.576 37.952C97.248 37.696 97.776 37.36 98.16 36.944C98.576 36.528 98.784 35.84 98.784 34.88C98.784 34.624 98.976 34.496 99.36 34.496C99.744 34.464 99.936 34.576 99.936 34.832L99.936 43.808C99.936 44.192 99.728 44.384 99.312 44.384C98.896 44.384 98.688 44.192 98.688 43.808C98.688 43.808 98.64 43.552 98.544 43.04C98.448 42.496 98.16 41.936 97.68 41.36C97.328 40.976 96.832 40.704 96.192 40.544C95.584 40.384 94.816 40.304 93.888 40.304L86.112 40.304L86.112 51.2C86.112 51.648 86.16 52.112 86.256 52.592C86.384 53.04 86.608 53.392 86.928 53.648C87.312 53.968 87.744 54.192 88.224 54.32C88.736 54.416 89.504 54.464 90.528 54.464L97.056 54.464C98.048 54.464 98.816 54.336 99.36 54.08C99.936 53.824 100.368 53.488 100.656 53.072C100.944 52.624 101.152 52.144 101.28 51.632C101.408 51.12 101.52 50.592 101.616 50.048C101.68 49.696 101.904 49.552 102.288 49.616C102.704 49.648 102.912 49.792 102.912 50.048ZM150.68 39.824C150.68 43.312 150.184 46.192 149.192 48.464C148.232 50.704 146.92 52.4 145.256 53.552C143.688 54.704 141.944 55.488 140.024 55.904C138.136 56.32 135.864 56.528 133.208 56.528L126.824 56.528L126.824 29.696C126.824 28.448 126.616 27.376 126.2 26.48C125.816 25.552 124.856 25.072 123.32 25.04C122.776 25.04 122.504 24.8 122.504 24.32C122.504 23.808 122.76 23.552 123.271 23.552L131.432 23.552C133.192 23.552 134.776 23.6 136.184 23.696C137.624 23.792 138.92 23.936 140.072 24.128C141.608 24.384 143.016 24.88 144.296 25.616C145.608 26.32 146.728 27.296 147.656 28.544C148.584 29.824 149.32 31.408 149.864 33.296C150.408 35.152 150.68 37.328 150.68 39.824ZM147.272 39.824C147.24 37.712 147.032 35.792 146.648 34.064C146.264 32.304 145.608 30.8 144.68 29.552C143.72 28.304 142.456 27.344 140.888 26.672C139.32 26 137.336 25.648 134.936 25.616C134.552 25.616 133.96 25.632 133.16 25.664C132.392 25.696 131.912 25.728 131.72 25.76C130.92 25.952 130.392 26.304 130.136 26.816C129.912 27.328 129.8 28.304 129.8 29.744L129.8 50.288C129.8 50.608 129.784 50.944 129.752 51.296C129.752 51.616 129.784 51.936 129.847 52.256C129.912 52.608 130.024 52.944 130.183 53.264C130.376 53.552 130.68 53.808 131.096 54.032C131.224 54.128 131.448 54.208 131.768 54.272C132.12 54.304 132.488 54.32 132.872 54.32C133.256 54.32 133.608 54.32 133.928 54.32C134.28 54.32 134.552 54.32 134.744 54.32C136.568 54.352 138.248 54.128 139.784 53.648C141.352 53.168 142.696 52.368 143.816 51.248C144.904 50.096 145.752 48.592 146.359 46.736C146.968 44.88 147.272 42.576 147.272 39.824ZM229.514 29.36L225.818 29.36C225.722 28.88 225.498 28.384 225.146 27.872C224.826 27.36 224.378 26.88 223.802 26.432C223.194 25.984 222.458 25.616 221.594 25.328C220.73 25.04 219.738 24.896 218.618 24.896C217.498 24.896 216.25 25.104 214.874 25.52C213.53 25.936 212.266 26.656 211.082 27.68C209.898 28.704 208.906 30.096 208.106 31.856C207.306 33.616 206.906 35.856 206.906 38.576C206.906 42.416 207.546 45.584 208.826 48.08C210.138 50.544 212.522 52.496 215.978 53.936C216.65 54.224 217.498 54.416 218.522 54.512C219.578 54.608 220.698 54.608 221.882 54.512C223.034 54.416 224.218 54.224 225.434 53.936C226.65 53.616 227.77 53.2 228.794 52.688C229.242 52.592 229.546 52.816 229.706 53.36C229.866 53.872 229.722 54.256 229.274 54.512C228.218 55.088 226.97 55.584 225.53 56C224.09 56.384 222.586 56.624 221.018 56.72C219.45 56.816 217.882 56.736 216.314 56.48C214.746 56.224 213.29 55.712 211.946 54.944C209.354 53.472 207.29 51.456 205.754 48.896C204.25 46.304 203.466 43.136 203.402 39.392C203.402 37.792 203.562 36.24 203.882 34.736C204.202 33.2 204.698 31.776 205.37 30.464C206.042 29.152 206.874 27.984 207.866 26.96C208.858 25.904 210.01 25.056 211.322 24.416C212.41 23.904 213.578 23.52 214.826 23.264C216.106 22.976 217.386 22.832 218.666 22.832C220.202 22.832 221.61 23.04 222.89 23.456C224.202 23.84 225.322 24.352 226.25 24.992C227.21 25.6 227.962 26.304 228.506 27.104C229.082 27.872 229.418 28.624 229.514 29.36ZM272.131 50.048L271.795 56.528L252.307 56.528L252.307 29.408C252.307 28.448 252.211 27.712 252.019 27.2C251.859 26.656 251.523 26.16 251.011 25.712C250.787 25.52 250.483 25.36 250.099 25.232C249.715 25.104 249.347 25.04 248.995 25.04C248.451 25.04 248.179 24.8 248.179 24.32C248.179 23.808 248.435 23.552 248.947 23.552L270.931 23.552L271.171 29.264C271.171 29.52 270.979 29.648 270.595 29.648C270.243 29.648 270.067 29.504 270.067 29.216C270.067 29.216 269.971 28.912 269.779 28.304C269.587 27.696 269.331 27.168 269.011 26.72C268.723 26.368 268.291 26.096 267.715 25.904C267.139 25.68 266.275 25.568 265.123 25.568L258.739 25.568C258.131 25.568 257.651 25.616 257.299 25.712C256.947 25.776 256.579 25.936 256.195 26.192C255.843 26.48 255.603 26.832 255.475 27.248C255.379 27.664 255.331 28.32 255.331 29.216L255.331 38.24L263.107 38.24C263.619 38.24 264.115 38.224 264.595 38.192C265.075 38.16 265.475 38.08 265.795 37.952C266.467 37.696 266.995 37.36 267.379 36.944C267.795 36.528 268.003 35.84 268.003 34.88C268.003 34.624 268.195 34.496 268.579 34.496C268.963 34.464 269.155 34.576 269.155 34.832L269.155 43.808C269.155 44.192 268.947 44.384 268.531 44.384C268.115 44.384 267.907 44.192 267.907 43.808C267.907 43.808 267.859 43.552 267.763 43.04C267.667 42.496 267.379 41.936 266.899 41.36C266.547 40.976 266.051 40.704 265.411 40.544C264.803 40.384 264.035 40.304 263.107 40.304L255.331 40.304L255.331 51.2C255.331 51.648 255.379 52.112 255.475 52.592C255.603 53.04 255.827 53.392 256.147 53.648C256.531 53.968 256.963 54.192 257.443 54.32C257.955 54.416 258.723 54.464 259.747 54.464L266.275 54.464C267.267 54.464 268.035 54.336 268.579 54.08C269.155 53.824 269.587 53.488 269.875 53.072C270.163 52.624 270.371 52.144 270.499 51.632C270.627 51.12 270.739 50.592 270.835 50.048C270.899 49.696 271.123 49.552 271.507 49.616C271.923 49.648 272.131 49.792 272.131 50.048Z" fill="#2D2D2D"/>
<path d="M36.9497 53.4921L16.0844 29.732L46.566 23.4795L36.9497 53.4921Z" fill="#E7E7E7"/>
<path d="M57.4861 15.8433L63.8091 46.6685L39.8818 67.7871L9.70696 57.9851L3.23404 26.8916L27.1533 5.55546L57.4703 15.7664" stroke="#494949" stroke-opacity="0.7" stroke-linecap="round"/>
<path d="M27.6356 8.08522L45.9676 21.6309L16.1166 27.754L27.6356 8.08522Z" fill="#D7D7D7"/>
<path d="M61.2379 45.8814L38.8038 53.9883L48.2961 24.4392L61.2379 45.8814Z" fill="#D7D7D7"/>
<path d="M11.3647 56.1115L35.187 54.5111L15.0816 31.2522L11.3647 56.1115Z" fill="#D7D7D7"/>
<path d="M54.317 16.4133L48.2368 20.9463L32.4813 9.28182L54.317 16.4133Z" fill="#D7D7D7"/>
<path d="M6.38732 26.2447L13.7611 28.0181L23.6522 11.0929L6.38732 26.2447Z" fill="#D7D7D7"/>
<path d="M55.7131 17.8794L49.4227 22.4557L60.4132 40.7932L55.7131 17.8794Z" fill="#D7D7D7"/>
<path d="M55.7131 17.8794L49.4227 22.4557L60.4132 40.7932L55.7131 17.8794Z" fill="#D7D7D7"/>
<path d="M55.7131 17.8794L49.4227 22.4557L60.4132 40.7932L55.7131 17.8794Z" fill="#D7D7D7"/>
<path d="M5.55156 28.1507L13.1356 29.8811L10.2517 51.0645L5.55156 28.1507Z" fill="#D7D7D7"/>
<path d="M5.55156 28.1507L13.1356 29.8811L10.2517 51.0645L5.55156 28.1507Z" fill="#D7D7D7"/>
<path d="M5.55156 28.1507L13.1356 29.8811L10.2517 51.0645L5.55156 28.1507Z" fill="#D7D7D7"/>
<path d="M40.3723 64.8388L38.3511 56.0528L57.9715 49.1803L40.3723 64.8388Z" fill="#D7D7D7"/>
<path d="M40.3723 64.8388L38.3511 56.0528L57.9715 49.1803L40.3723 64.8388Z" fill="#D7D7D7"/>
<path d="M40.3723 64.8388L38.3511 56.0528L57.9715 49.1803L40.3723 64.8388Z" fill="#D7D7D7"/>
<path d="M38.2702 65.27L36.6693 56.3978L15.9278 57.8045L38.2702 65.27Z" fill="#D7D7D7"/>
<path d="M38.2702 65.27L36.6693 56.3978L15.9278 57.8045L38.2702 65.27Z" fill="#D7D7D7"/>
<path d="M38.2702 65.27L36.6693 56.3978L15.9278 57.8045L38.2702 65.27Z" fill="#D7D7D7"/>
<path d="M180.781 53.9663L175.128 30.2468C175.105 30.1534 175.068 30.0637 175.014 29.9777C174.992 29.8844 174.966 29.7754 174.936 29.6509C174.914 29.5575 174.892 29.4641 174.87 29.3707C174.84 29.2462 174.806 29.1062 174.769 28.9505C174.525 27.9233 174.051 27.2467 173.348 26.9207C172.638 26.5637 171.638 26.7855 170.349 27.5863L169.41 28.2047C169.074 28.4494 168.783 28.4035 168.539 28.067C168.325 27.7232 168.41 27.3904 168.794 27.0686L175.074 21.3281L176.242 21.0499L183.91 53.2207L180.781 53.9663Z" fill="#2D2D2D"/>
</svg>
