<svg width="233" height="188" viewBox="0 0 233 188" fill="none" xmlns="http://www.w3.org/2000/svg">
<path d="M125.538 133.184L76.922 77.8239L147.943 63.2558L125.538 133.184Z" fill="#E7E7E7"/>
<g filter="url(#filter0_d_3_52)">
<path d="M173.387 45.4628L188.119 117.285L132.369 166.49L62.0629 143.652L46.9813 71.2051L102.712 21.4926L173.35 45.2837" stroke="#494949" stroke-opacity="0.8" stroke-linecap="round" shape-rendering="crispEdges"/>
</g>
<path d="M103.836 27.3869L146.549 58.9479L76.9973 73.2146L103.836 27.3869Z" fill="#D7D7D7"/>
<path d="M182.129 115.451L129.858 134.34L151.975 65.4912L182.129 115.451Z" fill="#D7D7D7"/>
<path d="M65.9256 139.287L121.431 135.558L74.5859 81.3653L65.9256 139.287Z" fill="#D7D7D7"/>
<path d="M166.003 46.791L151.836 57.3529L115.127 30.175L166.003 46.791Z" fill="#D7D7D7"/>
<path d="M54.3284 69.698L71.5091 73.8299L94.555 34.3947L54.3284 69.698Z" fill="#D7D7D7"/>
<path d="M169.256 50.207L154.6 60.8697L180.207 103.595L169.256 50.207Z" fill="#D7D7D7"/>
<path d="M169.256 50.207L154.6 60.8697L180.207 103.595L169.256 50.207Z" fill="#D7D7D7"/>
<path d="M169.256 50.207L154.6 60.8697L180.207 103.595L169.256 50.207Z" fill="#D7D7D7"/>
<path d="M52.3812 74.1388L70.0516 78.1706L63.3324 127.527L52.3812 74.1388Z" fill="#D7D7D7"/>
<path d="M52.3812 74.1388L70.0516 78.1706L63.3324 127.527L52.3812 74.1388Z" fill="#D7D7D7"/>
<path d="M52.3812 74.1388L70.0516 78.1706L63.3324 127.527L52.3812 74.1388Z" fill="#D7D7D7"/>
<path d="M133.512 159.621L128.803 139.15L174.518 123.137L133.512 159.621Z" fill="#D7D7D7"/>
<path d="M133.512 159.621L128.803 139.15L174.518 123.137L133.512 159.621Z" fill="#D7D7D7"/>
<path d="M133.512 159.621L128.803 139.15L174.518 123.137L133.512 159.621Z" fill="#D7D7D7"/>
<path d="M128.614 160.626L124.884 139.954L76.5574 143.231L128.614 160.626Z" fill="#D7D7D7"/>
<path d="M128.614 160.626L124.884 139.954L76.5574 143.231L128.614 160.626Z" fill="#D7D7D7"/>
<path d="M128.614 160.626L124.884 139.954L76.5574 143.231L128.614 160.626Z" fill="#D7D7D7"/>
<path d="M41.912 107.048L41.576 113.528L22.088 113.528L22.088 86.408C22.088 85.448 21.992 84.712 21.8 84.2C21.64 83.656 21.304 83.16 20.792 82.712C20.568 82.52 20.264 82.36 19.88 82.232C19.496 82.104 19.128 82.04 18.776 82.04C18.232 82.04 17.96 81.8 17.96 81.32C17.96 80.808 18.216 80.552 18.728 80.552L40.712 80.552L40.952 86.264C40.952 86.52 40.76 86.648 40.376 86.648C40.024 86.648 39.848 86.504 39.848 86.216C39.848 86.216 39.752 85.912 39.56 85.304C39.368 84.696 39.112 84.168 38.792 83.72C38.504 83.368 38.072 83.096 37.496 82.904C36.92 82.68 36.056 82.568 34.904 82.568L28.52 82.568C27.912 82.568 27.432 82.616 27.08 82.712C26.728 82.776 26.36 82.936 25.976 83.192C25.624 83.48 25.384 83.832 25.256 84.248C25.16 84.664 25.112 85.32 25.112 86.216L25.112 95.24L32.888 95.24C33.4 95.24 33.896 95.224 34.376 95.192C34.856 95.16 35.256 95.08 35.576 94.952C36.248 94.696 36.776 94.36 37.16 93.944C37.576 93.528 37.784 92.84 37.784 91.88C37.784 91.624 37.976 91.496 38.36 91.496C38.744 91.464 38.936 91.576 38.936 91.832L38.936 100.808C38.936 101.192 38.728 101.384 38.312 101.384C37.896 101.384 37.688 101.192 37.688 100.808C37.688 100.808 37.64 100.552 37.544 100.04C37.448 99.496 37.16 98.936 36.68 98.36C36.328 97.976 35.832 97.704 35.192 97.544C34.584 97.384 33.816 97.304 32.888 97.304L25.112 97.304L25.112 108.2C25.112 108.648 25.16 109.112 25.256 109.592C25.384 110.04 25.608 110.392 25.928 110.648C26.312 110.968 26.744 111.192 27.224 111.32C27.736 111.416 28.504 111.464 29.528 111.464L36.056 111.464C37.048 111.464 37.816 111.336 38.36 111.08C38.936 110.824 39.368 110.488 39.656 110.072C39.944 109.624 40.152 109.144 40.28 108.632C40.408 108.12 40.52 107.592 40.616 107.048C40.68 106.696 40.904 106.552 41.288 106.616C41.704 106.648 41.912 106.792 41.912 107.048ZM89.6795 96.824C89.6795 100.312 89.1835 103.192 88.1915 105.464C87.2315 107.704 85.9195 109.4 84.2555 110.552C82.6875 111.704 80.9435 112.488 79.0235 112.904C77.1355 113.32 74.8635 113.528 72.2075 113.528L65.8235 113.528L65.8235 86.696C65.8235 85.448 65.6155 84.376 65.1995 83.48C64.8155 82.552 63.8555 82.072 62.3195 82.04C61.7755 82.04 61.5035 81.8 61.5035 81.32C61.5035 80.808 61.7595 80.552 62.2715 80.552L70.4315 80.552C72.1915 80.552 73.7755 80.6 75.1835 80.696C76.6235 80.792 77.9195 80.936 79.0715 81.128C80.6075 81.384 82.0155 81.88 83.2955 82.616C84.6075 83.32 85.7275 84.296 86.6555 85.544C87.5835 86.824 88.3195 88.408 88.8635 90.296C89.4075 92.152 89.6795 94.328 89.6795 96.824ZM86.2715 96.824C86.2395 94.712 86.0315 92.792 85.6475 91.064C85.2635 89.304 84.6075 87.8 83.6795 86.552C82.7195 85.304 81.4555 84.344 79.8875 83.672C78.3195 83 76.3355 82.648 73.9355 82.616C73.5515 82.616 72.9595 82.632 72.1595 82.664C71.3915 82.696 70.9115 82.728 70.7195 82.76C69.9195 82.952 69.3915 83.304 69.1355 83.816C68.9115 84.328 68.7995 85.304 68.7995 86.744L68.7995 107.288C68.7995 107.608 68.7835 107.944 68.7515 108.296C68.7515 108.616 68.7835 108.936 68.8475 109.256C68.9115 109.608 69.0235 109.944 69.1835 110.264C69.3755 110.552 69.6795 110.808 70.0955 111.032C70.2235 111.128 70.4475 111.208 70.7675 111.272C71.1195 111.304 71.4875 111.32 71.8715 111.32C72.2555 111.32 72.6075 111.32 72.9275 111.32C73.2795 111.32 73.5515 111.32 73.7435 111.32C75.5675 111.352 77.2475 111.128 78.7835 110.648C80.3515 110.168 81.6955 109.368 82.8155 108.248C83.9035 107.096 84.7515 105.592 85.3595 103.736C85.9675 101.88 86.2715 99.576 86.2715 96.824ZM168.514 86.36L164.818 86.36C164.722 85.88 164.498 85.384 164.146 84.872C163.826 84.36 163.378 83.88 162.802 83.432C162.194 82.984 161.458 82.616 160.594 82.328C159.73 82.04 158.738 81.896 157.618 81.896C156.498 81.896 155.25 82.104 153.874 82.52C152.53 82.936 151.266 83.656 150.082 84.68C148.898 85.704 147.906 87.096 147.106 88.856C146.306 90.616 145.906 92.856 145.906 95.576C145.906 99.416 146.546 102.584 147.826 105.08C149.138 107.544 151.522 109.496 154.978 110.936C155.65 111.224 156.498 111.416 157.522 111.512C158.578 111.608 159.698 111.608 160.882 111.512C162.034 111.416 163.218 111.224 164.434 110.936C165.65 110.616 166.77 110.2 167.794 109.688C168.242 109.592 168.546 109.816 168.706 110.36C168.866 110.872 168.722 111.256 168.274 111.512C167.218 112.088 165.97 112.584 164.53 113C163.09 113.384 161.586 113.624 160.018 113.72C158.45 113.816 156.882 113.736 155.314 113.48C153.746 113.224 152.29 112.712 150.946 111.944C148.354 110.472 146.29 108.456 144.754 105.896C143.25 103.304 142.466 100.136 142.402 96.392C142.402 94.792 142.562 93.24 142.882 91.736C143.202 90.2 143.698 88.776 144.37 87.464C145.042 86.152 145.874 84.984 146.866 83.96C147.858 82.904 149.01 82.056 150.322 81.416C151.41 80.904 152.578 80.52 153.826 80.264C155.106 79.976 156.386 79.832 157.666 79.832C159.202 79.832 160.61 80.04 161.89 80.456C163.202 80.84 164.322 81.352 165.25 81.992C166.21 82.6 166.962 83.304 167.506 84.104C168.082 84.872 168.418 85.624 168.514 86.36ZM211.131 107.048L210.795 113.528L191.307 113.528L191.307 86.408C191.307 85.448 191.211 84.712 191.019 84.2C190.859 83.656 190.523 83.16 190.011 82.712C189.787 82.52 189.483 82.36 189.099 82.232C188.715 82.104 188.347 82.04 187.995 82.04C187.451 82.04 187.179 81.8 187.179 81.32C187.179 80.808 187.435 80.552 187.947 80.552L209.931 80.552L210.171 86.264C210.171 86.52 209.979 86.648 209.595 86.648C209.243 86.648 209.067 86.504 209.067 86.216C209.067 86.216 208.971 85.912 208.779 85.304C208.587 84.696 208.331 84.168 208.011 83.72C207.723 83.368 207.291 83.096 206.715 82.904C206.139 82.68 205.275 82.568 204.123 82.568L197.739 82.568C197.131 82.568 196.651 82.616 196.299 82.712C195.947 82.776 195.579 82.936 195.195 83.192C194.843 83.48 194.603 83.832 194.475 84.248C194.379 84.664 194.331 85.32 194.331 86.216L194.331 95.24L202.107 95.24C202.619 95.24 203.115 95.224 203.595 95.192C204.075 95.16 204.475 95.08 204.795 94.952C205.467 94.696 205.995 94.36 206.379 93.944C206.795 93.528 207.003 92.84 207.003 91.88C207.003 91.624 207.195 91.496 207.579 91.496C207.963 91.464 208.155 91.576 208.155 91.832L208.155 100.808C208.155 101.192 207.947 101.384 207.531 101.384C207.115 101.384 206.907 101.192 206.907 100.808C206.907 100.808 206.859 100.552 206.763 100.04C206.667 99.496 206.379 98.936 205.899 98.36C205.547 97.976 205.051 97.704 204.411 97.544C203.803 97.384 203.035 97.304 202.107 97.304L194.331 97.304L194.331 108.2C194.331 108.648 194.379 109.112 194.475 109.592C194.603 110.04 194.827 110.392 195.147 110.648C195.531 110.968 195.963 111.192 196.443 111.32C196.955 111.416 197.723 111.464 198.747 111.464L205.275 111.464C206.267 111.464 207.035 111.336 207.579 111.08C208.155 110.824 208.587 110.488 208.875 110.072C209.163 109.624 209.371 109.144 209.499 108.632C209.627 108.12 209.739 107.592 209.835 107.048C209.899 106.696 210.123 106.552 210.507 106.616C210.923 106.648 211.131 106.792 211.131 107.048Z" fill="#2D2D2D"/>
<path d="M119.781 112.966L114.127 89.2468C114.105 89.1534 114.067 89.0637 114.014 88.9777C113.992 88.8844 113.966 88.7754 113.936 88.6509C113.914 88.5575 113.891 88.4641 113.869 88.3707C113.84 88.2462 113.806 88.1062 113.769 87.9505C113.524 86.9233 113.05 86.2467 112.348 85.9207C111.638 85.5637 110.638 85.7855 109.348 86.5863L108.41 87.2047C108.074 87.4494 107.783 87.4035 107.538 87.067C107.325 86.7232 107.41 86.3904 107.794 86.0686L114.074 80.3281L115.241 80.0499L122.909 112.221L119.781 112.966Z" fill="#2D2D2D"/>
<defs>
<filter id="filter0_d_3_52" x="42.4329" y="20.926" width="150.234" height="154.128" filterUnits="userSpaceOnUse" color-interpolation-filters="sRGB">
<feFlood flood-opacity="0" result="BackgroundImageFix"/>
<feColorMatrix in="SourceAlpha" type="matrix" values="0 0 0 0 0 0 0 0 0 0 0 0 0 0 0 0 0 0 127 0" result="hardAlpha"/>
<feOffset dy="4"/>
<feGaussianBlur stdDeviation="2"/>
<feComposite in2="hardAlpha" operator="out"/>
<feColorMatrix type="matrix" values="0 0 0 0 0 0 0 0 0 0 0 0 0 0 0 0 0 0 0.25 0"/>
<feBlend mode="normal" in2="BackgroundImageFix" result="effect1_dropShadow_3_52"/>
<feBlend mode="normal" in="SourceGraphic" in2="effect1_dropShadow_3_52" result="shape"/>
</filter>
</defs>
</svg>
