<svg width="157" height="171" viewBox="0 0 157 171" fill="none" xmlns="http://www.w3.org/2000/svg">
<path d="M86.0916 124.635L37.476 69.2751L108.497 54.707L86.0916 124.635Z" fill="#D6D6D6"/>
<path d="M133.941 36.914L148.673 108.736L92.9233 157.942L22.6169 135.103L7.53522 62.6562L63.2664 12.9437L133.904 36.7348" stroke="#494949" stroke-opacity="0.7" stroke-width="3" stroke-linecap="round"/>
<path d="M64.39 18.8381L107.103 50.3991L37.5512 64.6658L64.39 18.8381Z" fill="#BBBBBB"/>
<path d="M142.682 106.902L90.4118 125.791L112.528 56.9423L142.682 106.902Z" fill="#BBBBBB"/>
<path d="M26.4795 130.738L81.9847 127.009L35.1398 72.8164L26.4795 130.738Z" fill="#BBBBBB"/>
<path d="M126.557 38.2422L112.39 48.804L75.6806 21.6261L126.557 38.2422Z" fill="#BBBBBB"/>
<path d="M14.8823 61.1492L32.063 65.2811L55.1089 25.8459L14.8823 61.1492Z" fill="#BBBBBB"/>
<path d="M129.81 41.6582L115.153 52.3209L140.761 95.0466L129.81 41.6582Z" fill="#BBBBBB"/>
<path d="M129.81 41.6582L115.153 52.3209L140.761 95.0466L129.81 41.6582Z" fill="#BBBBBB"/>
<path d="M129.81 41.6582L115.153 52.3209L140.761 95.0466L129.81 41.6582Z" fill="#BBBBBB"/>
<path d="M12.935 65.59L30.6055 69.6217L23.8862 118.978L12.935 65.59Z" fill="#BBBBBB"/>
<path d="M12.935 65.59L30.6055 69.6217L23.8862 118.978L12.935 65.59Z" fill="#BBBBBB"/>
<path d="M12.935 65.59L30.6055 69.6217L23.8862 118.978L12.935 65.59Z" fill="#BBBBBB"/>
<path d="M94.0664 151.072L89.3569 130.601L135.072 114.588L94.0664 151.072Z" fill="#BBBBBB"/>
<path d="M94.0664 151.072L89.3569 130.601L135.072 114.588L94.0664 151.072Z" fill="#BBBBBB"/>
<path d="M94.0664 151.072L89.3569 130.601L135.072 114.588L94.0664 151.072Z" fill="#BBBBBB"/>
<path d="M89.1683 152.077L85.4384 131.405L37.1113 134.682L89.1683 152.077Z" fill="#BBBBBB"/>
<path d="M89.1683 152.077L85.4384 131.405L37.1113 134.682L89.1683 152.077Z" fill="#BBBBBB"/>
<path d="M89.1683 152.077L85.4384 131.405L37.1113 134.682L89.1683 152.077Z" fill="#BBBBBB"/>
<path d="M79.7809 101.966L74.1274 78.2468C74.1051 78.1534 74.0673 78.0637 74.0139 77.9777C73.9916 77.8844 73.9657 77.7754 73.936 77.6509C73.9137 77.5575 73.8915 77.4641 73.8692 77.3707C73.8395 77.2462 73.8062 77.1062 73.7691 76.9505C73.5242 75.9233 73.0504 75.2467 72.3477 74.9207C71.6376 74.5637 70.6378 74.7855 69.3483 75.5863L68.4101 76.2047C68.0737 76.4494 67.7831 76.4035 67.5384 76.067C67.3249 75.7232 67.4101 75.3904 67.7939 75.0686L74.0741 69.3281L75.2414 69.0499L82.9092 101.221L79.7809 101.966Z" fill="#2D2D2D"/>
</svg>
